<?xml version="1.0" encoding="UTF-8" standalone="no"?>
<!DOCTYPE svg PUBLIC "-//W3C//DTD SVG 1.1//EN"
 "http://www.w3.org/Graphics/SVG/1.1/DTD/svg11.dtd">
<!-- Generated by graphviz version 2.30.1 (20180420.1509)
 -->
<!-- Title: %3 Pages: 1 -->
<svg width="538pt" height="572pt"
 viewBox="0.00 0.00 538.00 572.00" xmlns="http://www.w3.org/2000/svg" xmlns:xlink="http://www.w3.org/1999/xlink">
<g id="graph0" class="graph" transform="scale(1 1) rotate(0) translate(4 568)">
<title>%3</title>
<polygon fill="white" stroke="white" points="-4,5 -4,-568 535,-568 535,5 -4,5"/>
<!-- 47100925189664 -->
<g id="node1" class="node"><title>47100925189664</title>
<ellipse fill="none" stroke="black" cx="408" cy="-458" rx="70.2668" ry="18"/>
<text text-anchor="middle" x="408" y="-454.3" font-family="Times,serif" font-size="14.00">read_catalog</text>
</g>
<!-- 47100526394048 -->
<g id="node2" class="node"><title>47100526394048</title>
<ellipse fill="none" stroke="black" cx="319" cy="-370" rx="80.389" ry="18"/>
<text text-anchor="middle" x="319" y="-366.3" font-family="Times,serif" font-size="14.00">subset_catalog</text>
</g>
<!-- 47100925189664&#45;&gt;47100526394048 -->
<g id="edge2" class="edge"><title>47100925189664&#45;&gt;47100526394048</title>
<path fill="none" stroke="black" d="M394.107,-440.327C385.281,-430.064 373.408,-416.844 362,-406 357.709,-401.922 352.999,-397.783 348.317,-393.848"/>
<polygon fill="black" stroke="black" points="350.495,-391.107 340.546,-387.465 346.052,-396.517 350.495,-391.107"/>
<text text-anchor="middle" x="402.5" y="-410.3" font-family="Times,serif" font-size="14.00">catalog</text>
</g>
<!-- 47100520577920 -->
<g id="node3" class="node"><title>47100520577920</title>
<ellipse fill="none" stroke="black" cx="218" cy="-282" rx="71.2405" ry="18"/>
<text text-anchor="middle" x="218" y="-278.3" font-family="Times,serif" font-size="14.00">subset_dates</text>
</g>
<!-- 47100526394048&#45;&gt;47100520577920 -->
<g id="edge3" class="edge"><title>47100526394048&#45;&gt;47100520577920</title>
<path fill="none" stroke="black" d="M302.83,-352.321C292.6,-342.055 278.913,-328.834 266,-318 260.919,-313.737 255.361,-309.406 249.887,-305.312"/>
<polygon fill="black" stroke="black" points="251.569,-302.205 241.435,-299.116 247.431,-307.851 251.569,-302.205"/>
<text text-anchor="middle" x="309.5" y="-322.3" font-family="Times,serif" font-size="14.00">catalog</text>
</g>
<!-- 47100960392336 -->
<g id="node10" class="node"><title>47100960392336</title>
<ellipse fill="none" stroke="black" cx="129" cy="-194" rx="55.3436" ry="18"/>
<text text-anchor="middle" x="129" y="-190.3" font-family="Times,serif" font-size="14.00">load_data</text>
</g>
<!-- 47100520577920&#45;&gt;47100960392336 -->
<g id="edge5" class="edge"><title>47100520577920&#45;&gt;47100960392336</title>
<path fill="none" stroke="black" d="M204.107,-264.327C195.281,-254.064 183.408,-240.844 172,-230 167.531,-225.752 162.605,-221.438 157.732,-217.357"/>
<polygon fill="black" stroke="black" points="159.626,-214.385 149.67,-210.763 155.195,-219.803 159.626,-214.385"/>
<text text-anchor="middle" x="213.5" y="-234.3" font-family="Times,serif" font-size="14.00">catalog</text>
</g>
<!-- 47101018328992 -->
<g id="node4" class="node"><title>47101018328992</title>
<ellipse fill="none" stroke="black" cx="148" cy="-370" rx="72.2155" ry="18"/>
<text text-anchor="middle" x="148" y="-366.3" font-family="Times,serif" font-size="14.00">subset_times</text>
</g>
<!-- 47101018328992&#45;&gt;47100520577920 -->
<g id="edge8" class="edge"><title>47101018328992&#45;&gt;47100520577920</title>
<path fill="none" stroke="black" d="M156.625,-352.102C162.296,-341.755 170.265,-328.524 179,-318 182.328,-313.99 186.12,-310.022 190,-306.279"/>
<polygon fill="black" stroke="black" points="192.484,-308.749 197.475,-299.403 187.745,-303.597 192.484,-308.749"/>
<text text-anchor="middle" x="222.5" y="-322.3" font-family="Times,serif" font-size="14.00">date_subset</text>
</g>
<!-- 47101004886656 -->
<g id="node5" class="node"><title>47101004886656</title>
<ellipse fill="none" stroke="black" cx="64" cy="-282" rx="64.0172" ry="18"/>
<text text-anchor="middle" x="64" y="-278.3" font-family="Times,serif" font-size="14.00">cdf_kwargs</text>
</g>
<!-- 47101004886656&#45;&gt;47100960392336 -->
<g id="edge9" class="edge"><title>47101004886656&#45;&gt;47100960392336</title>
<path fill="none" stroke="black" d="M70.3416,-263.967C74.6834,-253.568 81.0827,-240.331 89,-230 92.3677,-225.605 96.354,-221.348 100.484,-217.405"/>
<polygon fill="black" stroke="black" points="102.866,-219.97 107.971,-210.686 98.1907,-214.761 102.866,-219.97"/>
<text text-anchor="middle" x="130.5" y="-234.3" font-family="Times,serif" font-size="14.00">cdf_kwargs</text>
</g>
<!-- 47100974270880 -->
<g id="node6" class="node"><title>47100974270880</title>
<ellipse fill="none" stroke="black" cx="129" cy="-106" rx="110.235" ry="18"/>
<text text-anchor="middle" x="129" y="-102.3" font-family="Times,serif" font-size="14.00">convert_to_collection</text>
</g>
<!-- 47100522650160 -->
<g id="node11" class="node"><title>47100522650160</title>
<ellipse fill="none" stroke="black" cx="129" cy="-18" rx="88.0886" ry="18"/>
<text text-anchor="middle" x="129" y="-14.3" font-family="Times,serif" font-size="14.00">long_term_mean</text>
</g>
<!-- 47100974270880&#45;&gt;47100522650160 -->
<g id="edge7" class="edge"><title>47100974270880&#45;&gt;47100522650160</title>
<path fill="none" stroke="black" d="M129,-87.5966C129,-75.7459 129,-59.8169 129,-46.2917"/>
<polygon fill="black" stroke="black" points="132.5,-46.084 129,-36.084 125.5,-46.084 132.5,-46.084"/>
<text text-anchor="middle" x="164" y="-58.3" font-family="Times,serif" font-size="14.00">collection</text>
</g>
<!-- 47101014279024 -->
<g id="node7" class="node"><title>47101014279024</title>
<ellipse fill="none" stroke="black" cx="350" cy="-546" rx="31.2735" ry="18"/>
<text text-anchor="middle" x="350" y="-542.3" font-family="Times,serif" font-size="14.00">path</text>
</g>
<!-- 47101014279024&#45;&gt;47100925189664 -->
<g id="edge1" class="edge"><title>47101014279024&#45;&gt;47100925189664</title>
<path fill="none" stroke="black" d="M360.909,-528.824C369.334,-516.333 381.149,-498.814 390.837,-484.449"/>
<polygon fill="black" stroke="black" points="393.855,-486.234 396.544,-475.986 388.051,-482.32 393.855,-486.234"/>
<text text-anchor="middle" x="400.5" y="-498.3" font-family="Times,serif" font-size="14.00">path</text>
</g>
<!-- 47101023728016 -->
<g id="node8" class="node"><title>47101023728016</title>
<ellipse fill="none" stroke="black" cx="465" cy="-546" rx="65.4659" ry="18"/>
<text text-anchor="middle" x="465" y="-542.3" font-family="Times,serif" font-size="14.00">csv_kwargs</text>
</g>
<!-- 47101023728016&#45;&gt;47100925189664 -->
<g id="edge10" class="edge"><title>47101023728016&#45;&gt;47100925189664</title>
<path fill="none" stroke="black" d="M453.739,-528.009C445.541,-515.641 434.296,-498.675 425.008,-484.661"/>
<polygon fill="black" stroke="black" points="427.68,-482.357 419.238,-475.956 421.845,-486.225 427.68,-482.357"/>
<text text-anchor="middle" x="483.5" y="-498.3" font-family="Times,serif" font-size="14.00">csv_kwargs</text>
</g>
<!-- 47101114469776 -->
<g id="node9" class="node"><title>47101114469776</title>
<ellipse fill="none" stroke="black" cx="254" cy="-458" rx="64.4914" ry="18"/>
<text text-anchor="middle" x="254" y="-454.3" font-family="Times,serif" font-size="14.00">search_dict</text>
</g>
<!-- 47101114469776&#45;&gt;47100526394048 -->
<g id="edge6" class="edge"><title>47101114469776&#45;&gt;47100526394048</title>
<path fill="none" stroke="black" d="M259.921,-439.922C264.026,-429.506 270.162,-416.267 278,-406 281.115,-401.92 284.776,-397.982 288.608,-394.312"/>
<polygon fill="black" stroke="black" points="290.969,-396.896 296.086,-387.619 286.301,-391.68 290.969,-396.896"/>
<text text-anchor="middle" x="320" y="-410.3" font-family="Times,serif" font-size="14.00">search_dict</text>
</g>
<!-- 47100960392336&#45;&gt;47100974270880 -->
<g id="edge4" class="edge"><title>47100960392336&#45;&gt;47100974270880</title>
<path fill="none" stroke="black" d="M129,-175.597C129,-163.746 129,-147.817 129,-134.292"/>
<polygon fill="black" stroke="black" points="132.5,-134.084 129,-124.084 125.5,-134.084 132.5,-134.084"/>
<text text-anchor="middle" x="148.5" y="-146.3" font-family="Times,serif" font-size="14.00">dsets</text>
</g>
</g>
</svg>
